<svg width="245" height="154" viewBox="0 0 245 154" fill="none" xmlns="http://www.w3.org/2000/svg">
<path d="M15.8388 85.7174C10.436 81.8264 10.2732 73.841 15.513 69.733L80.7387 18.596C84.4311 15.7011 89.6396 15.7627 93.2626 18.7439L108.455 31.2451C113.458 35.3622 113.285 43.0775 108.102 46.966L42.4399 96.2286C38.9416 98.8532 34.1435 98.9001 30.5946 96.3442L15.8388 85.7174Z" fill="#C9D518"/>
<path d="M97.563 137.323C94.0328 140.323 88.9036 140.506 85.1688 137.764L15.2241 86.4175C10.0241 82.6002 9.74534 74.9311 14.6544 70.7463L29.4761 58.1114C33.0247 55.0864 38.1928 54.9154 41.9336 57.6992L111.459 109.439C116.617 113.277 116.864 120.916 111.965 125.081L97.563 137.323Z" fill="#7EB826"/>
<path d="M228.205 68.1691C233.608 72.0601 233.771 80.0454 228.531 84.1534L163.305 135.29C159.613 138.185 154.404 138.124 150.781 135.143L135.589 122.641C130.586 118.524 130.759 110.809 135.942 106.92L201.604 57.6578C205.102 55.0332 209.9 54.9864 213.449 57.5423L228.205 68.1691Z" fill="#C9D518"/>
<path d="M146.479 16.5638C150.009 13.563 155.139 13.3802 158.873 16.122L228.818 67.469C234.018 71.2863 234.297 78.9554 229.388 83.1402L214.566 95.7751C211.018 98.8001 205.849 98.9711 202.109 96.1873L132.583 44.4476C127.425 40.609 127.178 32.9701 132.077 28.8059L146.479 16.5638Z" fill="#7EB826"/>
</svg>
